<svg xmlns="http://www.w3.org/2000/svg"><style>:root svg:not(:target){display:none}</style><svg fill="none" id="arrow" viewBox="0 0 10 6"><path d="m1.444 1.5 3.5 3 3.5-3" stroke="#4633B9" stroke-width="2"></path><path d="m1.444 1.5 3.5 3 3.5-3" stroke="#1767F9" stroke-width="2"></path><path d="m1.444 1.5 3.5 3 3.5-3" stroke="#4BB1BC" stroke-width="2"></path><path d="m1.444 1.5 3.5 3 3.5-3" stroke="#FFA300" stroke-width="2"></path><path d="m1.444 1.5 3.5 3 3.5-3" stroke="url(#arrow_0)" stroke-width="2"></path><defs><linearGradient id="arrow_0" x1="8.444" y1="3" x2="1.444" y2="3" gradientUnits="userSpaceOnUse"><stop stop-color="#FC0"></stop><stop offset="1" stop-color="#FFA300"></stop></linearGradient></defs></svg><svg fill="none" id="bonus" viewBox="0 0 50 50"><path d="M10 25h9a3 3 0 0 1 3 3v5a3 3 0 0 1-3 3h-9V25Z" stroke="#000" stroke-width="3"></path><path d="M22 14H10v13M27 25h9a3 3 0 0 1 3 3v5a3 3 0 0 1-3 3h-9V25Z" stroke="#000" stroke-width="3"></path><path d="M39 14H27v13" stroke="#000" stroke-width="3"></path></svg><svg fill="none" id="guarantee" viewBox="0 0 50 50"><path d="M47.922 12.25a2.466 2.466 0 0 0-.437-1.17 2.53 2.53 0 0 0-.96-.817L26.139.264a2.59 2.59 0 0 0-2.28 0l-20.387 10a2.54 2.54 0 0 0-.956.817c-.244.348-.394.75-.437 1.17-.028.267-2.45 26.914 21.886 37.53a2.556 2.556 0 0 0 2.07 0c24.335-10.616 21.915-37.26 21.887-37.53Z" fill="#4633B9"></path><path d="M47.922 12.25a2.466 2.466 0 0 0-.437-1.17 2.53 2.53 0 0 0-.96-.817L26.139.264a2.59 2.59 0 0 0-2.28 0l-20.387 10a2.54 2.54 0 0 0-.956.817c-.244.348-.394.75-.437 1.17-.028.267-2.45 26.914 21.886 37.53a2.556 2.556 0 0 0 2.07 0c24.335-10.616 21.915-37.26 21.887-37.53Z" fill="#1767F9"></path><path d="M47.922 12.25a2.466 2.466 0 0 0-.437-1.17 2.53 2.53 0 0 0-.96-.817L26.139.264a2.59 2.59 0 0 0-2.28 0l-20.387 10a2.54 2.54 0 0 0-.956.817c-.244.348-.394.75-.437 1.17-.028.267-2.45 26.914 21.886 37.53a2.556 2.556 0 0 0 2.07 0c24.335-10.616 21.915-37.26 21.887-37.53Z" fill="#4BB1BC"></path><path d="M47.922 12.25a2.466 2.466 0 0 0-.437-1.17 2.53 2.53 0 0 0-.96-.817L26.139.264a2.59 2.59 0 0 0-2.28 0l-20.387 10a2.54 2.54 0 0 0-.956.817c-.244.348-.394.75-.437 1.17-.028.267-2.45 26.914 21.886 37.53a2.556 2.556 0 0 0 2.07 0c24.335-10.616 21.915-37.26 21.887-37.53Z" fill="url(#guarantee_0)"></path><path d="M47.922 12.25a2.466 2.466 0 0 0-.437-1.17 2.53 2.53 0 0 0-.96-.817L26.139.264a2.59 2.59 0 0 0-2.28 0l-20.387 10a2.54 2.54 0 0 0-.956.817c-.244.348-.394.75-.437 1.17-.028.267-2.45 26.914 21.886 37.53a2.556 2.556 0 0 0 2.07 0c24.335-10.616 21.915-37.26 21.887-37.53Z" fill="url(#guarantee_1)" fill-opacity=".5"></path><path d="M47.922 12.25a2.466 2.466 0 0 0-.437-1.17 2.53 2.53 0 0 0-.96-.817L26.139.264a2.59 2.59 0 0 0-2.28 0l-20.387 10a2.54 2.54 0 0 0-.956.817c-.244.348-.394.75-.437 1.17-.028.267-2.45 26.914 21.886 37.53a2.556 2.556 0 0 0 2.07 0c24.335-10.616 21.915-37.26 21.887-37.53Z" fill="url(#guarantee_2)"></path><path d="M43.441 14.688v-.004a.639.639 0 0 0-.111-.3l1.233-.855-1.233.854a.652.652 0 0 0-.247-.213h-.002l-17.283-8.6a.669.669 0 0 0-.597 0L7.918 14.168a.661.661 0 0 0-.36.518v.004m35.882-.002L7.56 14.69m35.882-.002v.002c.005.053.126 1.437.007 3.621a37.429 37.429 0 0 1-1.484 8.596C39.99 33.508 35.582 41.1 25.77 45.441l-.007.003a.64.64 0 0 1-.526 0l-.007-.004M43.44 14.689 25.23 45.44M7.559 14.69v.002m0-.002v.002m17.67 30.748C15.42 41.1 11.01 33.508 9.037 26.907M25.23 45.44 9.036 26.907m0 0a37.435 37.435 0 0 1-1.484-8.597m1.484 8.597L7.552 18.31m0 0c-.118-2.178.001-3.559.006-3.618m-.006 3.618.006-3.618" stroke="#FFC530" stroke-width="3"></path><path d="M41.446 14.948v.006c.005.058.115 1.337.006 3.354a34.968 34.968 0 0 1-1.366 7.974c-1.816 6.123-5.87 13.152-14.887 17.173l-.008.004a.463.463 0 0 1-.382 0l-.008-.004c-9.016-4.02-13.07-11.05-14.887-17.173-1.825-6.15-1.362-11.308-1.36-11.329v-.003a.507.507 0 0 1 .273-.4L24.78 6.552a.49.49 0 0 1 .44 0l15.954 8h.002a.492.492 0 0 1 .186.162l1.236-.85-1.236.85a.5.5 0 0 1 .085.234ZM25.81 44.825C44.855 36.332 42.96 15.016 42.938 14.8H7.061c-.021.214-1.916 21.532 17.13 30.025a1.965 1.965 0 0 0 1.619 0Z" stroke="#000" stroke-width="3"></path><path d="M17 22.659 22.919 28 34 18" stroke="#000" stroke-width="3"></path><defs><radialGradient id="guarantee_0" cx="0" cy="0" r="1" gradientUnits="userSpaceOnUse" gradientTransform="matrix(-12.26682 26.19042 -29.36506 -13.75372 29.6 36.905)"><stop stop-color="#FF8A1E"></stop><stop offset="1" stop-color="#EF4141"></stop></radialGradient><radialGradient id="guarantee_1" cx="0" cy="0" r="1" gradientUnits="userSpaceOnUse" gradientTransform="matrix(-50.5025 -23.8099 29.73012 -63.05969 24.513 25.595)"><stop stop-color="#FFA901"></stop><stop offset="1" stop-color="#FFC701" stop-opacity="0"></stop></radialGradient><linearGradient id="guarantee_2" x1="40.26" y1="0" x2="-.435" y2="70.338" gradientUnits="userSpaceOnUse"><stop stop-color="#FFDF35"></stop><stop offset="1" stop-color="#FF8A01" stop-opacity="0"></stop></linearGradient></defs></svg><svg fill="none" id="loupe" viewBox="0 0 50 50"><g clip-path="url(#loupe_15)"><rect width="5" height="12" rx="2.5" transform="scale(-1 1) rotate(-45 27.627 42.556)" fill="#4633B9"></rect><rect width="5" height="12" rx="2.5" transform="scale(-1 1) rotate(-45 27.627 42.556)" fill="#1767F9"></rect><rect width="5" height="12" rx="2.5" transform="scale(-1 1) rotate(-45 27.627 42.556)" fill="#4BB1BC"></rect><rect width="5" height="12" rx="2.5" transform="scale(-1 1) rotate(-45 27.627 42.556)" fill="url(#loupe_8oupe_0)"></rect><rect width="5" height="12" rx="2.5" transform="scale(-1 1) rotate(-45 27.627 42.556)" fill="url(#loupe_8oupe_1)" fill-opacity=".5"></rect><rect width="5" height="12" rx="2.5" transform="scale(-1 1) rotate(-45 27.627 42.556)" fill="url(#loupe_12)"></rect><path fill-rule="evenodd" clip-rule="evenodd" d="M12.636 34.636a3.728 3.728 0 0 0-5.272 0l-5.85 5.85a5 5 0 1 0 7.072 7.07l5.85-5.849a3.728 3.728 0 0 0 0-5.272l-1.8-1.8Z" fill="#4633B9"></path><path fill-rule="evenodd" clip-rule="evenodd" d="M12.636 34.636a3.728 3.728 0 0 0-5.272 0l-5.85 5.85a5 5 0 1 0 7.072 7.07l5.85-5.849a3.728 3.728 0 0 0 0-5.272l-1.8-1.8Z" fill="#1767F9"></path><path fill-rule="evenodd" clip-rule="evenodd" d="M12.636 34.636a3.728 3.728 0 0 0-5.272 0l-5.85 5.85a5 5 0 1 0 7.072 7.07l5.85-5.849a3.728 3.728 0 0 0 0-5.272l-1.8-1.8Z" fill="#4BB1BC"></path><path fill-rule="evenodd" clip-rule="evenodd" d="M12.636 34.636a3.728 3.728 0 0 0-5.272 0l-5.85 5.85a5 5 0 1 0 7.072 7.07l5.85-5.849a3.728 3.728 0 0 0 0-5.272l-1.8-1.8Z" fill="url(#loupe_8oupe_2)"></path><path fill-rule="evenodd" clip-rule="evenodd" d="M12.636 34.636a3.728 3.728 0 0 0-5.272 0l-5.85 5.85a5 5 0 1 0 7.072 7.07l5.85-5.849a3.728 3.728 0 0 0 0-5.272l-1.8-1.8Z" fill="url(#loupe_8oupe_3)" fill-opacity=".5"></path><path fill-rule="evenodd" clip-rule="evenodd" d="M12.636 34.636a3.728 3.728 0 0 0-5.272 0l-5.85 5.85a5 5 0 1 0 7.072 7.07l5.85-5.849a3.728 3.728 0 0 0 0-5.272l-1.8-1.8Z" fill="url(#loupe_13)"></path><path d="M33.783 3.426a17 17 0 1 0-7.566 33.148 17 17 0 0 0 7.566-33.148Z" fill="#4633B9"></path><path d="M33.783 3.426a17 17 0 1 0-7.566 33.148 17 17 0 0 0 7.566-33.148Z" fill="#1767F9"></path><path d="M33.783 3.426a17 17 0 1 0-7.566 33.148 17 17 0 0 0 7.566-33.148Z" fill="#4BB1BC"></path><path d="M33.783 3.426a17 17 0 1 0-7.566 33.148 17 17 0 0 0 7.566-33.148Z" fill="url(#loupe_8oupe_4)"></path><path d="M33.783 3.426a17 17 0 1 0-7.566 33.148 17 17 0 0 0 7.566-33.148Z" fill="url(#loupe_8oupe_5)" fill-opacity=".5"></path><path d="M33.783 3.426a17 17 0 1 0-7.566 33.148 17 17 0 0 0 7.566-33.148Z" fill="url(#loupe_8oupe_6)"></path><path d="M32.948 8.776a11 11 0 1 0-4.896 21.448 11 11 0 0 0 4.896-21.448Z" stroke="#4633B9" stroke-width="3"></path><path d="M32.948 8.776a11 11 0 1 0-4.896 21.448 11 11 0 0 0 4.896-21.448Z" stroke="#1767F9" stroke-width="3"></path><path d="M32.948 8.776a11 11 0 1 0-4.896 21.448 11 11 0 0 0 4.896-21.448Z" stroke="#4BB1BC" stroke-width="3"></path><path d="M32.948 8.776a11 11 0 1 0-4.896 21.448 11 11 0 0 0 4.896-21.448Z" stroke="url(#loupe_8oupe_7)" stroke-width="3"></path><path d="M32.948 8.776a11 11 0 1 0-4.896 21.448 11 11 0 0 0 4.896-21.448Z" stroke="url(#loupe_8)" stroke-opacity=".5" stroke-width="3"></path><path d="M32.948 8.776a11 11 0 1 0-4.896 21.448 11 11 0 0 0 4.896-21.448Z" stroke="url(#loupe_9)" stroke-width="3"></path><path d="M32.782 7.813a12.5 12.5 0 1 0-5.563 24.373 12.5 12.5 0 0 0 5.563-24.373Z" fill="#4633B9"></path><path d="M32.782 7.813a12.5 12.5 0 1 0-5.563 24.373 12.5 12.5 0 0 0 5.563-24.373Z" fill="#1767F9"></path><path d="M32.782 7.813a12.5 12.5 0 1 0-5.563 24.373 12.5 12.5 0 0 0 5.563-24.373Z" fill="#4BB1BC"></path><path d="M32.782 7.813a12.5 12.5 0 1 0-5.563 24.373 12.5 12.5 0 0 0 5.563-24.373Z" fill="url(#loupe_10)"></path><path d="M32.782 7.813a12.5 12.5 0 1 0-5.563 24.373 12.5 12.5 0 0 0 5.563-24.373Z" fill="url(#loupe_11)" fill-opacity=".5"></path><path d="M32.782 7.813a12.5 12.5 0 1 0-5.563 24.373 12.5 12.5 0 0 0 5.563-24.373Z" fill="url(#loupe_14)"></path><path d="M32.782 7.813a12.5 12.5 0 1 0-5.563 24.373 12.5 12.5 0 0 0 5.563-24.373Z" stroke="#000" stroke-width="3"></path></g><defs><radialGradient id="loupe_0" cx="0" cy="0" r="1" gradientUnits="userSpaceOnUse" gradientTransform="matrix(-1.33332 6.28571 -3.72446 -.79003 3 8.857)"><stop stop-color="#FF8A1E"></stop><stop offset="1" stop-color="#EF4141"></stop></radialGradient><radialGradient id="loupe_1" cx="0" cy="0" r="1" gradientUnits="userSpaceOnUse" gradientTransform="rotate(-133.85 2.532 2.55) scale(7.92381 12.8151)"><stop stop-color="#FFA901"></stop><stop offset="1" stop-color="#FFC701" stop-opacity="0"></stop></radialGradient><radialGradient id="loupe_2" cx="0" cy="0" r="1" gradientUnits="userSpaceOnUse" gradientTransform="matrix(-8.18223 4.41102 -3.53856 -6.56385 5.37 45.115)"><stop stop-color="#FF8A1E"></stop><stop offset="1" stop-color="#EF4141"></stop></radialGradient><radialGradient id="loupe_3" cx="0" cy="0" r="1" gradientUnits="userSpaceOnUse" gradientTransform="matrix(-2.03901 -13.48744 20.85512 -3.15285 7.307 41.614)"><stop stop-color="#FFA901"></stop><stop offset="1" stop-color="#FFC701" stop-opacity="0"></stop></radialGradient><radialGradient id="loupe_4" cx="0" cy="0" r="1" gradientUnits="userSpaceOnUse" gradientTransform="matrix(9.29981 18.26751 -21.55902 10.97549 26.513 28.303)"><stop stop-color="#FF8A1E"></stop><stop offset="1" stop-color="#EF4141"></stop></radialGradient><radialGradient id="loupe_5" cx="0" cy="0" r="1" gradientUnits="userSpaceOnUse" gradientTransform="rotate(-23.448 64.371 -62.961) scale(41.7344 49.3202)"><stop stop-color="#FFA901"></stop><stop offset="1" stop-color="#FFC701" stop-opacity="0"></stop></radialGradient><radialGradient id="loupe_6" cx="0" cy="0" r="1" gradientUnits="userSpaceOnUse" gradientTransform="rotate(-10.513 117.107 -155.667) scale(45.7354 39.3672)"><stop stop-color="#FFDF35"></stop><stop offset="1" stop-color="#FF8A01" stop-opacity="0"></stop></radialGradient><radialGradient id="loupe_7" cx="0" cy="0" r="1" gradientUnits="userSpaceOnUse" gradientTransform="rotate(63.02 -6.916 35.587) scale(15.0724 17.7882)"><stop stop-color="#FF8A1E"></stop><stop offset="1" stop-color="#EF4141"></stop></radialGradient><radialGradient id="loupe_8" cx="0" cy="0" r="1" gradientUnits="userSpaceOnUse" gradientTransform="matrix(28.1529 -12.21092 14.43042 33.27009 30.771 19.805)"><stop stop-color="#FFA901"></stop><stop offset="1" stop-color="#FFC701" stop-opacity="0"></stop></radialGradient><radialGradient id="loupe_9" cx="0" cy="0" r="1" gradientUnits="userSpaceOnUse" gradientTransform="matrix(23.59222 -4.76594 4.10234 20.30728 30.771 18.584)"><stop stop-color="#FFDF35"></stop><stop offset="1" stop-color="#FF8A01" stop-opacity="0"></stop></radialGradient><radialGradient id="loupe_10" cx="0" cy="0" r="1" gradientUnits="userSpaceOnUse" gradientTransform="rotate(63.02 -8.15 35.518) scale(16.4579 19.4233)"><stop stop-color="#FF8A1E"></stop><stop offset="1" stop-color="#EF4141"></stop></radialGradient><radialGradient id="loupe_11" cx="0" cy="0" r="1" gradientUnits="userSpaceOnUse" gradientTransform="rotate(-23.448 64.137 -62.827) scale(33.5078 39.5983)"><stop stop-color="#FFA901"></stop><stop offset="1" stop-color="#FFC701" stop-opacity="0"></stop></radialGradient><linearGradient id="loupe_12" x1="4.159" y1="0" x2="-6.778" y2="8.561" gradientUnits="userSpaceOnUse"><stop stop-color="#FFDF35"></stop><stop offset="1" stop-color="#FF8A01" stop-opacity="0"></stop></linearGradient><linearGradient id="loupe_13" x1="15.881" y1="37.881" x2="-7.758" y2="39.062" gradientUnits="userSpaceOnUse"><stop stop-color="#FFDF35"></stop><stop offset="1" stop-color="#FF8A01" stop-opacity="0"></stop></linearGradient><linearGradient id="loupe_14" x1="26.5" y1="14.5" x2="34.666" y2="25.742" gradientUnits="userSpaceOnUse"><stop stop-color="#FFDF35"></stop><stop offset="1" stop-color="#FFDF35" stop-opacity="0"></stop></linearGradient><clipPath id="loupe_15"><path fill="#loupe_8oupe_3ff" transform="matrix(-1 0 0 1 50 0)" d="M0 0h50v50H0z"></path></clipPath></defs></svg><svg fill="none" id="screwdriver" viewBox="0 0 53 54"><path d="m17.96 37.96-2.97-2.97L40.954 9.026l1.087-3.067 6.183-4.203 2.97 2.97-4.203 6.183-3.067 1.087L17.96 37.96Z" fill="#000"></path><path fill-rule="evenodd" clip-rule="evenodd" d="m25.546 20.546-2.513.263A9.014 9.014 0 0 0 17.6 23.4L6.737 34.264A9 9 0 1 0 19.465 46.99l10.863-10.863a9.014 9.014 0 0 0 2.59-5.433l.264-2.513-7.636-7.636Z" fill="#4633B9"></path><path fill-rule="evenodd" clip-rule="evenodd" d="m25.546 20.546-2.513.263A9.014 9.014 0 0 0 17.6 23.4L6.737 34.264A9 9 0 1 0 19.465 46.99l10.863-10.863a9.014 9.014 0 0 0 2.59-5.433l.264-2.513-7.636-7.636Z" fill="#1767F9"></path><path fill-rule="evenodd" clip-rule="evenodd" d="m25.546 20.546-2.513.263A9.014 9.014 0 0 0 17.6 23.4L6.737 34.264A9 9 0 1 0 19.465 46.99l10.863-10.863a9.014 9.014 0 0 0 2.59-5.433l.264-2.513-7.636-7.636Z" fill="#4BB1BC"></path><path fill-rule="evenodd" clip-rule="evenodd" d="m25.546 20.546-2.513.263A9.014 9.014 0 0 0 17.6 23.4L6.737 34.264A9 9 0 1 0 19.465 46.99l10.863-10.863a9.014 9.014 0 0 0 2.59-5.433l.264-2.513-7.636-7.636Z" fill="#FFA300"></path><path fill-rule="evenodd" clip-rule="evenodd" d="m25.546 20.546-2.513.263A9.014 9.014 0 0 0 17.6 23.4L6.737 34.264A9 9 0 1 0 19.465 46.99l10.863-10.863a9.014 9.014 0 0 0 2.59-5.433l.264-2.513-7.636-7.636Z" fill="url(#screwdriver_0)"></path><path d="M31.465 18.465c-1.966-1.966-5.162-1.113-5.583 1.488l7.65 7.65c2.602-.42 3.454-3.617 1.489-5.582l-3.556-3.556Z" fill="#FFA300"></path><rect x="21" y="27" width="2" height="18" rx="1" transform="rotate(45 21 27)" fill="#000"></rect><rect x="25" y="31" width="2" height="18" rx="1" transform="rotate(45 25 31)" fill="#000"></rect><defs><linearGradient id="screwdriver_0" x1="24.414" y1="42.042" x2="11.686" y2="29.314" gradientUnits="userSpaceOnUse"><stop stop-color="#FC0"></stop><stop offset="1" stop-color="#FFA300"></stop></linearGradient></defs></svg><svg fill="none" id="white-arrow" viewBox="0 0 12 18"><path d="M2 16.5 9 9 2 1.5" stroke="#fff" stroke-width="3"></path></svg></svg>