<svg width="21" height="24" fill="none" xmlns="http://www.w3.org/2000/svg"><path fill-rule="evenodd" clip-rule="evenodd" d="M14.899.071c-1.04.209-2.101.776-2.834 1.515-1.031 1.04-1.65 2.47-1.608 3.71l.014.382.41-.006c.967-.013 1.911-.465 2.82-1.347 1.154-1.122 1.762-2.455 1.762-3.867V0l-.126.004a3.945 3.945 0 0 0-.438.067Zm-.781 5.701c-.492.094-.938.222-1.619.467-.313.112-.826.288-1.14.39-.776.252-.852.243-2.279-.252-1.528-.53-1.836-.602-2.576-.603-1.962 0-3.826 1.073-4.956 2.852-.436.687-.822 1.715-1.002 2.668-.09.48-.103.687-.102 1.718.002.976.019 1.273.1 1.777.341 2.097 1.162 4.24 2.26 5.9.942 1.427 1.906 2.487 2.675 2.945.474.282.785.366 1.354.366.563 0 .991-.098 1.816-.415 1.097-.422 1.614-.525 2.46-.492.676.027 1.172.14 1.94.44 1.635.641 2.571.62 3.599-.085.931-.637 2.288-2.406 3.096-4.035.268-.54.68-1.543.7-1.706.008-.065-.077-.133-.349-.278-1.253-.669-2.242-1.809-2.643-3.046-.295-.913-.339-2.178-.105-3.082.294-1.14.926-2.049 1.96-2.823.247-.184.472-.343.5-.352.066-.022-.331-.53-.658-.842-.744-.71-1.715-1.199-2.867-1.445-.624-.134-1.644-.165-2.164-.067Z" fill="#000"/></svg>