<svg width="26" height="26" fill="none" xmlns="http://www.w3.org/2000/svg"><g clip-path="url(#a)" fill-rule="evenodd" clip-rule="evenodd" fill="#000"><path d="M0 6a6 6 0 1 1 12 0A6 6 0 0 1 0 6Zm6-2a2 2 0 1 0 0 4 2 2 0 0 0 0-4ZM0 20a6 6 0 1 1 12 0 6 6 0 0 1-12 0Zm6-2a2 2 0 1 0 0 4 2 2 0 0 0 0-4ZM14 6a6 6 0 1 1 12 0 6 6 0 0 1-12 0Zm6-2a2 2 0 1 0 0 4 2 2 0 0 0 0-4ZM14 20a6 6 0 1 1 12 0 6 6 0 0 1-12 0Zm6-2a2 2 0 1 0 0 4 2 2 0 0 0 0-4Z"/></g><defs><clipPath id="a"><path fill="#fff" d="M0 0h26v26H0z"/></clipPath></defs></svg>