<svg width="27" height="26" fill="none" xmlns="http://www.w3.org/2000/svg"><g clip-path="url(#a)" fill-rule="evenodd" clip-rule="evenodd" fill="#000"><path d="M7.778 6a1 1 0 0 0-1 1v9h14V7a1 1 0 0 0-1-1h-12Zm-3 1a3 3 0 0 1 3-3h12a3 3 0 0 1 3 3v11h-18V7Z"/><path d="M5.398 16h16.76l3.801 3.379c1.031.916.383 2.621-.996 2.621H2.593c-1.38 0-2.028-1.705-.997-2.621L5.398 16Zm.76 2-2.25 2h19.74l-2.25-2H6.158Z"/></g><defs><clipPath id="a"><path fill="#fff" transform="translate(.778)" d="M0 0h26v26H0z"/></clipPath></defs></svg>