<svg width="20" height="20" fill="none" xmlns="http://www.w3.org/2000/svg"><g clip-path="url(#a)"><path fill-rule="evenodd" clip-rule="evenodd" d="M9.769 6.53c-.586 0-1.016-.011-1.37-.02-.427-.01-.74-.019-1.075-.001-.515.027-1.016.119-1.991.443-1.603.531-2.8 2.309-3.136 3.98-.235 1.168-.254 1.965-.09 2.444.071.205.167.324.286.407.13.09.362.188.785.214.388.024.774-.11 1.154-.35.383-.241.693-.545.93-.78.971-.968 2.336-1.712 4.507-1.712s3.536.744 4.507 1.712c.237.235.547.539.93.78.38.24.766.374 1.154.35.423-.026.656-.125.785-.214.12-.083.215-.202.286-.407.164-.479.145-1.276-.09-2.444-.335-1.671-1.533-3.449-3.136-3.98-.975-.324-1.476-.416-1.991-.443-.335-.018-.649-.01-1.076 0-.353.01-.783.02-1.369.02Zm0-2c.444 0 .843-.01 1.205-.017.517-.012.958-.021 1.344-.001.754.04 1.441.184 2.518.541 2.502.831 4.042 3.37 4.466 5.485.24 1.199.373 2.463.02 3.49a2.755 2.755 0 0 1-1.038 1.399c-.508.352-1.122.524-1.801.566-.948.058-1.75-.28-2.343-.653-.585-.369-1.03-.813-1.27-1.052l-.005-.005c-.606-.602-1.466-1.128-3.096-1.128-1.63 0-2.49.526-3.096 1.128l-.005.005c-.24.239-.685.683-1.27 1.052-.593.373-1.395.711-2.343.653-.679-.042-1.293-.214-1.801-.566a2.754 2.754 0 0 1-1.038-1.4c-.353-1.026-.22-2.29.02-3.489C.66 8.423 2.2 5.884 4.702 5.053c1.077-.357 1.764-.502 2.518-.541.386-.02.827-.01 1.344 0 .362.009.76.017 1.205.017Z" fill="#000"/><path d="M5.135 7.691v3.886M3.192 9.634h3.886" stroke="#000"/><circle cx="13.904" cy="8.339" r=".648" fill="#000"/><circle cx="13.904" cy="10.929" r=".648" fill="#000"/><circle cx="12.61" cy="9.634" r=".648" fill="#000"/><circle cx="15.2" cy="9.634" r=".648" fill="#000"/></g><defs><clipPath id="a"><path fill="#fff" d="M0 0h20v20H0z"/></clipPath></defs></svg>