<svg width="46" height="50" viewBox="0 0 46 50" fill="none" xmlns="http://www.w3.org/2000/svg">
<path d="M45.9215 12.2505C45.8791 11.8304 45.7288 11.4277 45.4846 11.0802C45.2403 10.7326 44.9102 10.4515 44.525 10.2632L24.1391 0.264263C23.785 0.0904793 23.3946 0 22.9987 0C22.6028 0 22.2124 0.0904793 21.8584 0.264263L1.47243 10.2632C1.08834 10.4526 0.759209 10.734 0.515542 11.0814C0.271876 11.4288 0.121564 11.8309 0.078541 12.2505C0.0505103 12.518 -2.37032 39.1652 21.9654 49.7816C22.2906 49.9256 22.6433 50 23 50C23.3568 50 23.7094 49.9256 24.0346 49.7816C48.3703 39.1652 45.9495 12.5205 45.9215 12.2505Z" fill="#4633B9"/>
<path d="M45.9215 12.2505C45.8791 11.8304 45.7288 11.4277 45.4846 11.0802C45.2403 10.7326 44.9102 10.4515 44.525 10.2632L24.1391 0.264263C23.785 0.0904793 23.3946 0 22.9987 0C22.6028 0 22.2124 0.0904793 21.8584 0.264263L1.47243 10.2632C1.08834 10.4526 0.759209 10.734 0.515542 11.0814C0.271876 11.4288 0.121564 11.8309 0.078541 12.2505C0.0505103 12.518 -2.37032 39.1652 21.9654 49.7816C22.2906 49.9256 22.6433 50 23 50C23.3568 50 23.7094 49.9256 24.0346 49.7816C48.3703 39.1652 45.9495 12.5205 45.9215 12.2505Z" fill="#1767F9"/>
<path d="M45.9215 12.2505C45.8791 11.8304 45.7288 11.4277 45.4846 11.0802C45.2403 10.7326 44.9102 10.4515 44.525 10.2632L24.1391 0.264263C23.785 0.0904793 23.3946 0 22.9987 0C22.6028 0 22.2124 0.0904793 21.8584 0.264263L1.47243 10.2632C1.08834 10.4526 0.759209 10.734 0.515542 11.0814C0.271876 11.4288 0.121564 11.8309 0.078541 12.2505C0.0505103 12.518 -2.37032 39.1652 21.9654 49.7816C22.2906 49.9256 22.6433 50 23 50C23.3568 50 23.7094 49.9256 24.0346 49.7816C48.3703 39.1652 45.9495 12.5205 45.9215 12.2505Z" fill="#4BB1BC"/>
<path d="M45.9215 12.2505C45.8791 11.8304 45.7288 11.4277 45.4846 11.0802C45.2403 10.7326 44.9102 10.4515 44.525 10.2632L24.1391 0.264263C23.785 0.0904793 23.3946 0 22.9987 0C22.6028 0 22.2124 0.0904793 21.8584 0.264263L1.47243 10.2632C1.08834 10.4526 0.759209 10.734 0.515542 11.0814C0.271876 11.4288 0.121564 11.8309 0.078541 12.2505C0.0505103 12.518 -2.37032 39.1652 21.9654 49.7816C22.2906 49.9256 22.6433 50 23 50C23.3568 50 23.7094 49.9256 24.0346 49.7816C48.3703 39.1652 45.9495 12.5205 45.9215 12.2505Z" fill="url(#paint0_radial_2_7413)"/>
<path d="M45.9215 12.2505C45.8791 11.8304 45.7288 11.4277 45.4846 11.0802C45.2403 10.7326 44.9102 10.4515 44.525 10.2632L24.1391 0.264263C23.785 0.0904793 23.3946 0 22.9987 0C22.6028 0 22.2124 0.0904793 21.8584 0.264263L1.47243 10.2632C1.08834 10.4526 0.759209 10.734 0.515542 11.0814C0.271876 11.4288 0.121564 11.8309 0.078541 12.2505C0.0505103 12.518 -2.37032 39.1652 21.9654 49.7816C22.2906 49.9256 22.6433 50 23 50C23.3568 50 23.7094 49.9256 24.0346 49.7816C48.3703 39.1652 45.9495 12.5205 45.9215 12.2505Z" fill="url(#paint1_radial_2_7413)" fill-opacity="0.5"/>
<path d="M45.9215 12.2505C45.8791 11.8304 45.7288 11.4277 45.4846 11.0802C45.2403 10.7326 44.9102 10.4515 44.525 10.2632L24.1391 0.264263C23.785 0.0904793 23.3946 0 22.9987 0C22.6028 0 22.2124 0.0904793 21.8584 0.264263L1.47243 10.2632C1.08834 10.4526 0.759209 10.734 0.515542 11.0814C0.271876 11.4288 0.121564 11.8309 0.078541 12.2505C0.0505103 12.518 -2.37032 39.1652 21.9654 49.7816C22.2906 49.9256 22.6433 50 23 50C23.3568 50 23.7094 49.9256 24.0346 49.7816C48.3703 39.1652 45.9495 12.5205 45.9215 12.2505Z" fill="url(#paint2_linear_2_7413)"/>
<path d="M41.4412 14.6882L41.4408 14.6838C41.4301 14.5764 41.3922 14.473 41.3299 14.3831L42.563 13.5289L41.3299 14.3831C41.2677 14.2932 41.1829 14.2197 41.0831 14.1702L41.0813 14.1693L23.7976 5.57023L23.7971 5.57002C23.7049 5.52409 23.6028 5.5 23.4989 5.5C23.3951 5.5 23.2929 5.52409 23.2007 5.57002L23.2003 5.57023L5.9193 14.168C5.91902 14.1681 5.91873 14.1682 5.91844 14.1684C5.81833 14.2186 5.73338 14.2927 5.67086 14.3831C5.60819 14.4738 5.56993 14.5781 5.55898 14.6863L5.55865 14.6896M41.4412 14.6882L5.55865 14.6896L5.55865 14.6896M41.4412 14.6882L41.4413 14.6897C41.446 14.7435 41.5667 16.1266 41.4477 18.3111C41.3258 20.5476 40.954 23.5975 39.9642 26.9073C37.9903 33.5083 33.5816 41.0988 23.7701 45.4405L23.7627 45.4438C23.6804 45.4808 23.5908 45.5 23.5 45.5C23.4092 45.5 23.3196 45.4808 23.2373 45.4438L23.2298 45.4405M41.4412 14.6882L23.2298 45.4405M5.55865 14.6896C5.55869 14.6892 5.55863 14.6899 5.55849 14.6915M5.55865 14.6896L5.55849 14.6915M23.2298 45.4405C13.4185 41.0988 9.00967 33.5079 7.03576 26.9066M23.2298 45.4405L7.03576 26.9066M7.03576 26.9066C6.046 23.5965 5.6742 20.5466 5.55231 18.3102M7.03576 26.9066L5.55231 18.3102M5.55231 18.3102C5.43361 16.1321 5.5533 14.7514 5.55849 14.6915M5.55231 18.3102L5.55849 14.6915" stroke="#FFC530" stroke-width="3"/>
<path d="M39.4458 14.9476L39.4462 14.952C39.4462 14.9515 39.4462 14.9522 39.4464 14.9539C39.4513 15.0118 39.5609 16.2909 39.4518 18.3076C39.3396 20.3827 38.9973 23.2121 38.0863 26.2822C36.2695 32.4051 32.2154 39.4344 23.1987 43.4553L23.1912 43.4587C23.131 43.486 23.0658 43.5 23 43.5C22.9342 43.5 22.869 43.486 22.8088 43.4587L22.8012 43.4553C13.7846 39.4344 9.73053 32.4046 7.91369 26.2815C6.08929 20.1329 6.55183 14.9736 6.55364 14.9534L6.55365 14.9534L6.55398 14.9501C6.56252 14.865 6.59233 14.7837 6.64031 14.7138C6.68808 14.6442 6.75222 14.5882 6.82652 14.5505C6.82683 14.5504 6.82713 14.5502 6.82743 14.5501L22.7789 6.55231L22.7793 6.55209C22.8477 6.51777 22.9229 6.5 22.999 6.5C23.0751 6.5 23.1503 6.51777 23.2187 6.55209L23.2191 6.55231L39.1734 14.5515L39.1751 14.5524C39.2491 14.5893 39.313 14.6448 39.3605 14.7138L40.5966 13.8641L39.3605 14.7139C39.408 14.783 39.4375 14.8634 39.4458 14.9476ZM23.8097 44.8253C42.855 36.3322 40.9605 15.0164 40.9385 14.8004H5.06147C5.03953 15.0144 3.14496 36.3322 22.1903 44.8253C22.4448 44.9404 22.7208 45 23 45C23.2792 45 23.5552 44.9404 23.8097 44.8253Z" stroke="black" stroke-width="3"/>
<path d="M15 22.6587L20.9188 28L32 18" stroke="black" stroke-width="3"/>
<defs>
<radialGradient id="paint0_radial_2_7413" cx="0" cy="0" r="1" gradientUnits="userSpaceOnUse" gradientTransform="translate(27.6 36.9048) rotate(115.097) scale(28.9208 32.4264)">
<stop stop-color="#FF8A1E"/>
<stop offset="1" stop-color="#EF4141"/>
</radialGradient>
<radialGradient id="paint1_radial_2_7413" cx="0" cy="0" r="1" gradientUnits="userSpaceOnUse" gradientTransform="translate(22.5132 25.5952) rotate(-154.758) scale(55.8338 69.7166)">
<stop stop-color="#FFA901"/>
<stop offset="1" stop-color="#FFC701" stop-opacity="0"/>
</radialGradient>
<linearGradient id="paint2_linear_2_7413" x1="38.2595" y1="2.32674e-06" x2="-2.43545" y2="70.338" gradientUnits="userSpaceOnUse">
<stop stop-color="#FFDF35"/>
<stop offset="1" stop-color="#FF8A01" stop-opacity="0"/>
</linearGradient>
</defs>
</svg>
