<svg width="53" height="54" viewBox="0 0 53 54" fill="none" xmlns="http://www.w3.org/2000/svg">
<path d="M17.9598 37.9598L14.9899 34.9899L40.954 9.02587L42.0412 5.95879L48.224 1.75593L51.1938 4.72578L46.991 10.9085L43.9239 11.9957L17.9598 37.9598Z" fill="black"/>
<path fill-rule="evenodd" clip-rule="evenodd" d="M25.5456 20.5456L23.0326 20.8094C20.9783 21.025 19.0603 21.9397 17.5997 23.4003L6.73655 34.2635C3.22183 37.7782 3.22182 43.4767 6.73654 46.9914C10.2513 50.5061 15.9498 50.5061 19.4645 46.9914L30.3276 36.1282C31.7882 34.6676 32.7029 32.7497 32.9185 30.6953L33.1823 28.1823L25.5456 20.5456Z" fill="#4633B9"/>
<path fill-rule="evenodd" clip-rule="evenodd" d="M25.5456 20.5456L23.0326 20.8094C20.9783 21.025 19.0603 21.9397 17.5997 23.4003L6.73655 34.2635C3.22183 37.7782 3.22182 43.4767 6.73654 46.9914C10.2513 50.5061 15.9498 50.5061 19.4645 46.9914L30.3276 36.1282C31.7882 34.6676 32.7029 32.7497 32.9185 30.6953L33.1823 28.1823L25.5456 20.5456Z" fill="#1767F9"/>
<path fill-rule="evenodd" clip-rule="evenodd" d="M25.5456 20.5456L23.0326 20.8094C20.9783 21.025 19.0603 21.9397 17.5997 23.4003L6.73655 34.2635C3.22183 37.7782 3.22182 43.4767 6.73654 46.9914C10.2513 50.5061 15.9498 50.5061 19.4645 46.9914L30.3276 36.1282C31.7882 34.6676 32.7029 32.7497 32.9185 30.6953L33.1823 28.1823L25.5456 20.5456Z" fill="#4BB1BC"/>
<path fill-rule="evenodd" clip-rule="evenodd" d="M25.5456 20.5456L23.0326 20.8094C20.9783 21.025 19.0603 21.9397 17.5997 23.4003L6.73655 34.2635C3.22183 37.7782 3.22182 43.4767 6.73654 46.9914C10.2513 50.5061 15.9498 50.5061 19.4645 46.9914L30.3276 36.1282C31.7882 34.6676 32.7029 32.7497 32.9185 30.6953L33.1823 28.1823L25.5456 20.5456Z" fill="#FFA300"/>
<path fill-rule="evenodd" clip-rule="evenodd" d="M25.5456 20.5456L23.0326 20.8094C20.9783 21.025 19.0603 21.9397 17.5997 23.4003L6.73655 34.2635C3.22183 37.7782 3.22182 43.4767 6.73654 46.9914C10.2513 50.5061 15.9498 50.5061 19.4645 46.9914L30.3276 36.1282C31.7882 34.6676 32.7029 32.7497 32.9185 30.6953L33.1823 28.1823L25.5456 20.5456Z" fill="url(#paint0_linear_2_7401)"/>
<path d="M31.4646 18.4646C29.4994 16.4994 26.303 17.3516 25.8818 19.9529L33.5324 27.6034C36.1337 27.1823 36.9858 23.9858 35.0207 22.0207L31.4646 18.4646Z" fill="#FFA300"/>
<rect x="21" y="27" width="2" height="18" rx="1" transform="rotate(45 21 27)" fill="black"/>
<rect x="25" y="31" width="2" height="18" rx="1" transform="rotate(45 25 31)" fill="black"/>
<defs>
<linearGradient id="paint0_linear_2_7401" x1="24.4142" y1="42.0416" x2="11.6863" y2="29.3137" gradientUnits="userSpaceOnUse">
<stop stop-color="#FFCC00"/>
<stop offset="1" stop-color="#FFA300"/>
</linearGradient>
</defs>
</svg>
